<?xml version="1.0" encoding="utf-8"?>
<!-- Generator: Adobe Illustrator 27.5.0, SVG Export Plug-In . SVG Version: 6.00 Build 0)  -->
<svg version="1.1" xmlns="http://www.w3.org/2000/svg" xmlns:xlink="http://www.w3.org/1999/xlink" x="0px" y="0px"
	 viewBox="0 0 750 500" style="enable-background:new 0 0 750 500;" xml:space="preserve">
<g id="BACKGROUND">
	<rect style="fill:#FFFFFF;" width="750" height="500"/>
</g>
<g id="OBJECTS">
	<g>
		<path style="opacity:0.11;" d="M347.185,408.77c2.864,3.455-4.3,6.554-12.911,7.003c-62.153,3.235-124.706,4.094-187.07,2.569
			c-12.515-0.306-25.107-0.715-37.278-2.369c-18.596-2.532-8.726-10.458,4.591-11.702c49.318-4.607,99.789,1.086,149.762,0.046
			c21.419-0.446,42.897-2.129,64.204-0.832c4.467,0.272,9.046,0.702,12.857,2.027C344.432,406.585,346.294,407.695,347.185,408.77z"
			/>
		<g>
			<g>
				<g>
					<path d="M226.195,399.343c-0.985-0.291-98.532-29.03-99.738-29.358l0.375-0.917c1.22,0.332,95.742,28.18,99.766,29.365
						L226.195,399.343z"/>
					<polygon points="114.6,400.671 114.16,399.773 219.635,365.407 220.075,366.305 					"/>
					<polygon points="228.675,413.317 214.036,343.626 138.923,339.67 110.446,412.381 109.319,412.087 138.077,338.657 
						215.045,342.71 229.841,413.153 					"/>
				</g>
				<path style="fill:#E8CB61;" d="M159.835,359.392c-9.992-0.994-19.714-2.998-28.246-6.713
					c-29.286-12.751-48.198-40.244-46.993-72.87c0.892-24.155,13.736-47.581,33.622-61.323c6.982-4.825,14.812-8.518,23.118-10.259
					c17.406-3.649,36.479,1.952,49.148,14.433c19.434,19.145,24.137,52.303,48.497,64.582c7.577,3.819,16.351,5.098,23.468,9.717
					c7.941,5.154,13.048,14.417,13.166,23.883c0.182,14.595-12.037,27.716-25.376,32.115c-17.935,5.915-35.229,5.923-53.661,6.797
					C185.087,360.301,172.252,360.627,159.835,359.392z"/>
				<path style="fill:#E79D90;" d="M290.412,383.089c-3.429-0.53-7.326-0.615-9.92,1.689c-2.93,2.602-2.923,7.444-0.879,10.788
					c2.044,3.344,5.618,5.44,9.223,6.977c8.44,3.599,17.666,4.841,26.761,6.047c3.097,0.411,6.264,0.819,9.323,0.184
					c4.742-0.985,8.446-4.874,7.436-9.956c-0.898-4.517-3.839-4.789-7.798-5.831C313.132,389.979,302.131,384.901,290.412,383.089z"
					/>
				<path style="fill:#E79D90;" d="M246.688,283.038c0.051-3.469-0.403-7.34-3.043-9.592c-2.982-2.543-7.777-1.866-10.806,0.621
					c-3.029,2.486-4.611,6.316-5.635,10.099c-2.398,8.856-2.353,18.165-2.291,27.34c0.021,3.124,0.054,6.317,1.106,9.259
					c1.631,4.561,5.995,7.691,10.888,5.988c4.35-1.513,4.213-4.464,4.698-8.529C243.004,306.491,246.512,294.894,246.688,283.038z"
					/>
				<path style="fill:#7ABFB7;" d="M170.595,207.216c2.536,0.866,5.085,1.738,7.445,3.007c2.842,1.529,5.353,3.602,8.1,5.295
					c3.378,2.08,6.84,3.619,10.081,5.918c3.31,2.348,6.203,5.221,9.281,7.852c3.098,2.649,6.502,5.422,9.856,7.707
					c3.678,2.505,7.617,3.689,9.139,8.41c3.541,10.987-4.803,22.576-16.344,22.91c-1.518,0.044-3.075-0.113-4.452-0.755
					c-1.861-0.868-3.213-2.523-4.498-4.125c-7.798-9.722-16.951-17.638-25.173-26.987c-4.719-5.365-8.918-9.654-11.7-16.422
					c-0.21-0.51-0.414-1.026-0.614-1.548C159.097,211.652,162.844,204.569,170.595,207.216z"/>
				<g>
					<g id="XMLID_120_">
						<g id="XMLID_122_">
							<g id="XMLID_128_">
								<g id="XMLID_129_">
									<path style="fill:#E79D90;" d="M220.906,248.814c-3.191,1.516-6.323,3.127-9.48,4.708
										c-2.421,1.213-5.052,2.319-7.498,3.684c-0.409-0.946,1.315-3.359,0.935-4.314c-2.067-5.19-3.57-7.615-5.59-12.733
										c-2.175-5.511-5.982-12.615-8.146-18.131c-0.12-0.306,8.094-7.363,9.573-7.673c0,0,5.839,7.212,8.839,10.57
										c6.121,6.851,12.379,13.473,18.287,20.427C225.555,246.576,223.236,247.707,220.906,248.814z"/>
									<path style="fill:#7ABFB7;" d="M195.751,247.6c-0.436-1.353-0.69-2.73-0.644-4.128c0.175-5.306,7.321-8.035,10.821-10.719
										c2.208-1.693,4.677-3.046,7.293-3.997c0.476-0.173,0.965-0.334,1.47-0.349c1.33-0.039,2.46,0.911,3.445,1.805
										c4.283,3.885,8.612,7.824,11.807,12.644c3.774,5.692,7.203,15.279,1.873,21.024c-1.991,2.145-4.8,3.349-7.625,4.11
										c-3.556,0.957-7.324,1.3-10.936,0.58c-3.612-0.72-7.059-2.56-9.363-5.434c-1.316-1.642-2.229-3.564-3.13-5.466
										C199.255,254.49,196.887,251.124,195.751,247.6z"/>
								</g>
							</g>
						</g>
					</g>
					<g id="XMLID_100_">
						<g id="XMLID_103_">
							<g id="XMLID_106_">
								<path id="XMLID_107_" style="fill:#E79D90;" d="M193.18,198.531c3.003,3.058,5.568,6.862,5.541,11.114
									c-0.007,1.027-0.339,2.262-1.329,2.537c-0.341,0.094-0.707,0.051-1.045-0.056c-3.05-0.966-1.364-4.33-2.134-6.53
									c-0.761-2.175-2.88-3.581-4.543-5.026c-1.628-1.415-0.716-4.405,1.662-3.53c0.496,0.182,0.896,0.553,1.275,0.922
									C192.8,198.149,192.99,198.338,193.18,198.531z"/>
							</g>
						</g>
					</g>
				</g>
				<path d="M229.542,334.517c5.546,1.278,10.939,1.789,16.603,2.657c4.089,0.627,8.218,0.886,12.341,1.165
					c3.552,0.241,6.804,1.315,10.388,1.574c0.268,0.019,0.565,0.028,0.772-0.143c0.216-0.18,0.256-0.491,0.279-0.771
					c0.178-2.103,0.297-4.422-0.977-6.105c-1.141-1.507-3.096-2.092-4.902-2.649c-6.813-2.099-13.37-5.024-19.484-8.69
					c-1.523-0.913-1.639-1.726-2.283-3.087c-0.414-0.876,0.783-1.543-1.259-1.632c-5.379-0.235-10.757-0.47-16.136-0.705
					c-0.342,1.192-3.916,17.295-2.702,17.337C224.678,333.555,227.093,333.953,229.542,334.517z"/>
				<path d="M336.765,412.477c1.624-0.382,2.969-1.126,3.829-2.362c0.447-0.643,0.629-1.387,0.801-2.11
					c1.847-7.753,3.299-15.65,4.589-23.513c1.061-6.469,4.425-14.556-1.841-19.51c-0.507-0.401-1.081-0.766-1.725-0.821
					c-1.508-0.129-2.578,1.391-3.281,2.732c-3.068,5.858-5.582,12.008-7.461,18.348c-0.557,1.88-1.096,3.848-2.389,5.323
					c-1.293,1.475-3.602,2.273-5.262,1.228c-1.615,5.72-3.503,11.362-5.656,16.902C321.913,410.681,331.057,413.818,336.765,412.477
					z"/>
				<path style="fill:#4F7FC2;" d="M305.24,393.371c1.727-4.461,3.455-8.923,5.182-13.384c-10.533-6.618-22.193-11.06-33.131-17.273
					c-12.175-6.914-24.304-13.908-36.47-20.838c-14.983-8.535-30.018-16.982-45.248-25.069
					c-13.094-6.952-26.616-12.117-33.453-26.33c-2.59-5.384-4.115-11.525-8.386-15.702c-7.303-7.14-20.5-5.109-27.271,2.537
					c-6.771,7.646-7.891,19.032-5.425,28.943c3.022,12.142,11.043,22.8,21.318,29.808c10.755,7.335,19.56,13.336,32.352,17.107
					c11.888,3.505,23.477,7.942,35.051,12.375c6.069,2.324,12.191,4.676,17.621,8.246c5.411,3.559,9.998,8.241,15.31,11.945
					c8.311,5.795,18.104,9.005,27.739,12.139c9.79,3.184,19.579,6.368,29.369,9.552C301.611,402.742,303.425,398.056,305.24,393.371
					z"/>
				<path style="fill:#4F7FC2;" d="M224.017,297.637c-0.019,1.773-0.005,3.589,0.008,5.423c0.038-0.002,0.07-0.017,0.111-0.014
					c6.979,0.491,25.275,2.627,32.266,2.601c2.473-0.014-0.339-13.198-0.609-14.626c-0.753-3.978-0.035-7.719-0.026-11.762
					c0.011-5.25-0.614-10.485-1.432-15.664c-0.851-5.387-2.131-11.135-6.17-14.799c-5.045-4.578-12.743-4.443-19.437-3.179
					c-0.881,0.166-1.775,0.353-2.563,0.783c-3.236,1.766-2.615,5.374-2.898,8.411c-0.356,3.817-1.313,7.516-1.311,11.456
					c0.002,4.588,1.722,8.631,1.869,13.259C224.016,285.56,224.081,291.599,224.017,297.637z"/>
				<path style="fill:#4F7FC2;" d="M227.074,294.156c0.667-1.456,1.295-2.92,1.894-4.376c4.365-10.61,12.335-20.367,12.498-32.368
					c0.068-5.044-2.906-10.382-7.771-11.714c-5.02-1.375-10.117,1.675-14.222,4.876c-7.844,6.116-14.314,13.628-19.98,21.764
					c-2.12,3.044-4.851,9.611-9.35,8.453c-3.53-0.909-6.665-8.622-9.174-11.156c-4.163-4.203-10.433-5.927-16.318-5.321
					c-5.885,0.606-11.397,3.34-16.083,6.953c-4.985,3.844-9.447,9.555-8.687,15.803c0.268,2.202,1.173,4.277,2.211,6.237
					c9.336,17.628,30.154,27.43,50.087,26.683c5.7-0.214,11.472-1.218,16.524-3.867
					C217.616,311.449,223.046,302.954,227.074,294.156z"/>
				<path d="M223.871,299.95l-0.434-0.003c0.114-11.793,1.523-23.598,4.189-35.088l0.423,0.098
					C225.391,276.416,223.985,288.189,223.871,299.95z"/>
				<g>
					<defs>
						<path id="SVGID_1_" d="M160.197,358.397c-7.096-1.363-14.093-3.24-20.915-5.622c-15.873-5.543-28.661-22.211-33.719-37.785
							c-5.314-16.362-7.248-37.09-4.42-54.014c1.822-10.902,8.061-22.006,18.537-25.533c7.537-2.537,15.83-0.738,23.338,1.887
							c10.12,3.539,15.857,8.507,20.277,18.14c5.737,12.504,10.583,33.034,21.239,42.374c3.473,3.044,8.055,4.432,12.485,5.739
							c7.812,2.304,15.624,4.608,23.436,6.912c4.135,1.22,8.331,2.466,11.974,4.771c3.643,2.305,6.727,5.848,7.478,10.093
							c3.965,22.414-17.972,33.059-36.309,34.95C189.141,361.799,174.468,361.138,160.197,358.397z"/>
					</defs>
					<clipPath id="SVGID_00000083066357458000486890000011560040769079882123_">
						<use xlink:href="#SVGID_1_"  style="overflow:visible;"/>
					</clipPath>
				</g>
				<path style="fill:#E84B4B;" d="M134.007,176.662c-1.314-1.167-1.723-3.237-0.952-4.816s2.655-2.529,4.383-2.211
					c-0.457-1.6-0.062-3.418,1.019-4.683c1.081-1.265,2.814-1.94,4.466-1.738c0.391,0.048,0.794,0.14,1.172,0.031
					c0.392-0.113,0.689-0.423,0.994-0.695c1.729-1.545,8.928-3.16,8.661,0.971c0.537-1.089,1.914-1.57,3.111-1.365
					c1.197,0.204,2.229,0.959,3.098,1.807c0.897,0.875,1.704,1.942,1.852,3.186c0.148,1.244-0.582,2.656-1.811,2.897
					c1.099-0.216,2.462,1.89,2.758,2.686c0.534,1.438,0.096,2.811-0.549,4.139c-1.92,3.954-5.293,7.125-8.564,9.968
					c-1.757,1.527-3.576,2.98-5.394,4.435c-0.954,0.763-2.224,2.727-3.508,2.664c-0.383-0.019-0.766-0.198-1.128-0.462
					c-0.101,0.046-0.214,0.069-0.338,0.058c-0.827-0.078-1.249-0.689-1.718-1.314c-0.429-0.571-0.828-1.165-1.197-1.778
					c-1.344-2.233-1.251-2.475-3.922-2.712c-0.866-0.077-1.819-0.394-2.191-1.179c-0.433-0.914,0.117-1.968,0.65-2.827
					c-1.813,0.764-4.059-0.832-4.23-2.792C130.501,178.972,132.095,177.125,134.007,176.662z"/>
				<path style="fill:#1A2732;" d="M132.573,215.541c2.125-4.426,6.765-7.223,11.548-8.329c6.631-1.534,16.961-2.947,23.411,0.064
					c4.276,1.995,6.527,6.663,7.849,10.948c1.678,5.438,3.18,8.839,6.022,13.927c5.974,10.691,9.092,22.984,8.824,35.234
					c-0.158,7.225-2.205,15.476-8.694,18.657c-2.975,1.458-6.406,1.575-9.718,1.63c-11.444,0.192-22.895-0.014-34.325-0.617
					c-1.1-0.058-2.258-0.138-3.179-0.742c-1.02-0.669-1.558-1.851-2.044-2.971c-3.181-7.324-5.282-12.642-5.745-20.541
					c-0.473-8.065-0.496-16.088-0.496-24.161c0.102-4.561,0.113-7.499,2.308-11.32C130.482,223.581,130.738,219.363,132.573,215.541
					z"/>
				<path style="fill:#7ABFB7;" d="M183.72,216.72c1.564,1.999-1.226,5.858-0.608,8.393c6.361,26.099,11.674,27.542,13.038,41.065
					c0.763,7.567,1.192,15.38-1.348,22.8c-1.368,3.994-4.355,7.684-8.443,8.741c-2.272,0.587-4.678,0.325-6.979-0.141
					c-3.717-0.753-7.954-2.76-8.36-6.531c-0.116-1.082,0.117-2.165,0.264-3.243c1.056-7.766-2.784-14.483-3.677-21.929
					c-0.631-5.257-0.028-10.539,0.004-15.809c0.016-2.621,0.16-5.697-0.61-8.233c-0.639-2.103-1.572-3.583-1.775-5.911
					c-0.376-4.327-0.704-8.818-1.621-13.07c-0.76-3.529-1.562-6.883-3.511-9.988c-0.696-1.108-1.442-2.221-1.751-3.493
					c-0.248-1.018-0.199-2.065-0.167-3.1c0.035-1.147-0.023-2.304-0.035-3.451c0.307,0.267,0.887,0.365,1.27,0.498
					c0.487,0.169,0.976,0.331,1.467,0.49c0.995,0.322,1.995,0.628,2.995,0.933c2.02,0.616,4.044,1.229,6.027,1.958
					c1.997,0.734,3.959,1.586,5.789,2.678C178.949,211.32,181.488,213.866,183.72,216.72z"/>
				<path style="fill:#E79D90;" d="M142.363,190.005c-0.141-4.119-0.209-9.101,2.446-12.529c2.109-2.723,4.77-2.889,7.793-3.956
					c3.405-1.202,6.648-2.936,10.24-3.549c0.184-0.031,0.388-0.056,0.544,0.046c0.129,0.084,0.195,0.235,0.252,0.378
					c1.167,2.922,1.215,5.668,1.517,8.724c0.249,2.522,0.928,4.893,0.913,7.477c-0.021,3.498-0.319,8.913-2.918,11.631
					c-2.092,2.188-5.271,3.287-5.302,3.072c0.191,1.361,0.374,3.224,0.308,4.611c-0.13,2.731-0.728,6.051-3.601,7.174
					c-3.797,1.485-11.99,1.281-12.717-4.089c-0.089-0.656-0.044-1.322,0-1.982c0.292-4.321,0.553-8.549,0.58-12.822
					C142.427,192.802,142.411,191.408,142.363,190.005z"/>
				<g>
					<circle style="fill:#E79D90;" cx="142.17" cy="188.879" r="3.983"/>
					<path style="fill:#1A2732;" d="M142.844,187.076c-0.886,0.09-1.691,0.736-1.971,1.581c-0.28,0.845-0.02,1.844,0.637,2.445"/>
				</g>
				<g>
					<defs>
						<path id="SVGID_00000018953805995351504320000009334456191481657738_" d="M142.419,194.191
							c0.009-1.389-0.007-2.782-0.055-4.185c-0.154-4.495-0.122-9.096,2.142-13.114c2.289-4.061,6.387-5.101,10.953-4.391
							c3.92,0.61,5.482,1.969,6.739,5.43c1.593,4.385,2.395,8.395,2.38,13.096c-0.007,2.28-0.119,4.637-1.114,6.689
							c-0.995,2.051-3.091,3.73-5.365,3.56c0.103,3.913,0.682,10.156-3.543,11.807c-3.797,1.485-11.99,1.281-12.717-4.089
							c-0.089-0.656-0.044-1.322,0-1.982C142.131,202.692,142.392,198.464,142.419,194.191z"/>
					</defs>
					<clipPath id="SVGID_00000165199625746440710830000001420904744184714663_">
						<use xlink:href="#SVGID_00000018953805995351504320000009334456191481657738_"  style="overflow:visible;"/>
					</clipPath>
					<path style="clip-path:url(#SVGID_00000165199625746440710830000001420904744184714663_);fill:#1A2732;" d="M158.268,201.318
						c0.662,0.001,1.195,0.012,1.855-0.043c0.493-0.041,0.986-0.083,1.479-0.124c-0.309,0.502-0.64,0.984-0.904,1.516
						c-0.347,0.7-0.54,1.464-0.775,2.208c-0.887-0.01-1.793-0.358-2.6-0.772c-1.753-0.898-3.412-2.151-4.294-3.912
						C154.612,200.971,156.504,201.316,158.268,201.318z"/>
				</g>
				<path style="fill:#7ABFB7;" d="M107.275,249.777c-0.047,0.474-0.08,0.949-0.098,1.425c-0.194,5.349-0.642,9.23-2.748,14.316
					c-0.953,2.302-1.904,4.642-2.222,7.114c-0.358,2.785,0.104,5.602,0.565,8.372c0.631,3.793,1.546,8.035,4.789,10.103
					c1.127,0.719,2.441,1.096,3.589,1.78c3.5,2.085,0.684,9.818,1.801,10.335c3.336,1.473,7.022,0.887,10.532,0.596
					c6.169-0.51,12.363-1.035,18.423-2.344c2.716-0.587,6.33-1.119,8.732-2.579c2.049-1.245,3.263-4.366,3.858-6.56
					c0.665-2.455,0.823-5.017,0.86-7.56c0.135-9.16-0.842-18.837-2.615-27.821c-1.076-5.456-2.769-10.819-3.137-16.367
					c-0.149-2.251-0.081-4.538-0.636-6.725c-0.61-2.405-1.939-4.552-3.039-6.776c-2.688-5.433-3.366-11.142-3.638-17.126
					c-0.142-3.131,0.961-10.359-4.23-7.534c-4.539,2.47-10.546,1.58-14.622,4.756c-0.902,0.703-1.666,1.58-2.626,2.201
					c-0.96,0.622-2.223,0.957-3.245,0.446c-0.268-0.134-0.544-0.328-0.839-0.271c-0.466,0.09-0.582,0.692-0.62,1.165
					c-0.341,4.202-3.092,7.973-4.519,11.896c-1.568,4.314-2.105,9.037-2.172,13.595
					C109.352,240.822,107.719,245.263,107.275,249.777z"/>
				<path style="fill:none;stroke:#1A2732;stroke-width:0.5;stroke-miterlimit:10;" d="M193.968,280.077
					c-4.593-2.501-7.159-7.719-7.904-12.896c-0.103-0.717-0.302-1.592-1.001-1.784"/>
				<circle style="fill:#1A2732;" cx="169.997" cy="235.661" r="1.609"/>
				<path style="fill:#1A2732;" d="M171.062,245.883c0,0.889,0.721,1.609,1.609,1.609s1.61-0.721,1.61-1.609
					c0-0.889-0.721-1.609-1.61-1.609S171.062,244.994,171.062,245.883z"/>
				<path style="fill:#1A2732;" d="M172.15,256.757c0,0.889,0.721,1.609,1.609,1.609s1.609-0.721,1.609-1.609
					c0-0.889-0.721-1.609-1.609-1.609S172.15,255.868,172.15,256.757z"/>
				<circle style="fill:#1A2732;" cx="174.847" cy="268.067" r="1.609"/>
				<path style="fill:#E84B4B;" d="M162.437,162.133c0.881-0.423,1.927-0.499,2.799-0.072c1.173,0.576,1.813,2.154,1.187,3.301
					c0.976-0.752,2.478-0.509,3.384,0.325c0.907,0.834,1.29,2.112,1.328,3.344c0.09,2.925-1.71,5.822-4.374,7.036
					c-1.444,0.658-3.322,0.77-4.472-0.324c-0.378,1.449-1.863,2.525-3.358,2.432c-1.495-0.093-2.835-1.346-3.029-2.831
					c-0.881,0.893-1.9,1.698-3.1,2.063c-1.2,0.365-2.609,0.224-3.553-0.602c-0.665-0.582-1.034-1.427-1.303-2.269
					c-0.884-2.766-0.244-4.882,1.46-7.108c1.428-1.867,3.695-3.089,6.01-3.422c1.189-0.171,4.755,0.172,4.558,2.156
					c0.13-1.301,0.64-2.605,1.618-3.471C161.845,162.467,162.131,162.279,162.437,162.133z"/>
				<path style="fill:none;stroke:#1A2732;stroke-width:0.5;stroke-miterlimit:10;" d="M195.029,260.03
					c-0.485-3.19-1.977-10.009-3.356-12.926c-0.811-1.714-1.911-3.283-2.679-5.017c-2.045-4.618-1.596-10.067-3.776-14.623"/>
				<path style="fill:#E84B4B;" d="M148.84,179.034c-0.07,0.121-0.152,0.235-0.246,0.341c-0.644,0.726-1.857,0.349-2.396,1.012
					c-0.547,0.673,0.068,1.74-0.108,2.553c-0.328,1.509-2.139,2.451-3.607,1.974c-3.064-0.996-2.265-5.314-1.341-7.537
					c0.9-2.164,2.521-4.112,4.7-4.973c1.997-0.789,6.495-0.3,5.413,2.994c-0.313,0.953-1.513,1.571-2.401,1.107
					C149.257,177.286,149.276,178.284,148.84,179.034z"/>
				<path style="fill:none;stroke:#1A2732;stroke-miterlimit:10;" d="M163.091,191.339c-1.022,1.374-2.555,2.408-4.252,2.633
					c-1.698,0.225-3.534-0.437-4.544-1.82"/>
				<path style="fill:none;stroke:#1A2732;stroke-width:0.5;stroke-miterlimit:10;" d="M197.988,238.616
					c-2.062,1.607-2.715,4.512-2.38,7.105c0.335,2.593,1.486,4.996,2.449,7.426"/>
				<path style="fill:none;stroke:#1A2732;stroke-width:0.5;stroke-miterlimit:10;" d="M201.077,319.4
					c-7.638-6.459-17.023-10.504-25.038-16.489c-1.968-1.47-3.849-3.053-5.717-4.648"/>
				<g id="XMLID_88_">
					<g id="XMLID_89_">
						<g id="XMLID_97_">
							<path id="XMLID_99_" d="M177.341,221.11h14.48c0.499,0,0.903-0.404,0.903-0.903v-31.443c0-0.431-0.349-0.78-0.78-0.78
								h-14.723c-0.432,0-0.783,0.35-0.783,0.783v31.44C176.438,220.706,176.843,221.11,177.341,221.11z"/>
						</g>
					</g>
				</g>
				<g id="XMLID_64_">
					<g id="XMLID_83_">
						<g id="XMLID_84_">
							<g id="XMLID_86_">
								<path id="XMLID_87_" style="fill:#E79D90;" d="M179.946,197.533c4.954,1.102,9.409,2.376,13.854,5.942
									c2.763,2.217,0.109,4.241-1.749,2.992c-3.989-2.682-8.334-4.549-13.026-5.593
									C176.849,200.391,177.77,197.049,179.946,197.533z"/>
							</g>
						</g>
					</g>
					<g id="XMLID_78_">
						<g id="XMLID_79_">
							<g id="XMLID_80_">
								<path id="XMLID_81_" style="fill:#E79D90;" d="M176.347,200.909c5.668,1.434,10.96,3.931,16.213,6.446
									c2.01,0.963,0.255,3.951-1.749,2.992c-4.992-2.39-9.999-4.734-15.385-6.097
									C173.265,203.704,174.181,200.361,176.347,200.909z"/>
							</g>
						</g>
					</g>
					<g id="XMLID_73_">
						<g id="XMLID_74_">
							<g id="XMLID_75_">
								<path id="XMLID_77_" style="fill:#E79D90;" d="M176.574,205.689c1.069-0.246,2.189,0.216,3.209,0.518
									c1.287,0.381,2.556,0.824,3.801,1.326c2.445,0.986,4.784,2.165,7.027,3.55c1.894,1.169,0.156,4.168-1.749,2.992
									c-1.87-1.155-3.807-2.197-5.835-3.048c-0.979-0.411-1.974-0.778-2.982-1.109c-0.49-0.161-0.984-0.314-1.48-0.457
									c-0.13-0.037-1.054-0.23-1.152-0.356c-0.556,0.11-1.162-0.027-1.553-0.464c-0.017-0.019-0.033-0.037-0.05-0.056
									C174.983,207.663,175.236,205.997,176.574,205.689z"/>
							</g>
						</g>
					</g>
					<g id="XMLID_69_">
						<g id="XMLID_70_">
							<g id="XMLID_71_">
								<path id="XMLID_72_" style="fill:#E79D90;" d="M178.877,210.465c3.781,1.149,6.953,2.786,10.322,4.82
									c1.906,1.151,0.167,4.149-1.749,2.992c-3.106-1.875-6.007-3.411-9.494-4.471
									C175.827,213.16,176.735,209.815,178.877,210.465z"/>
							</g>
						</g>
					</g>
				</g>
				<g id="XMLID_38_">
					<g id="XMLID_39_">
						<g id="XMLID_41_">
							<g id="XMLID_50_" style="opacity:0.54;">
								<path style="fill:#FFFFFF;" d="M183.821,192.792c0,0.592,0.48,1.072,1.072,1.072c0.592,0,1.072-0.48,1.072-1.072
									c0-0.592-0.48-1.072-1.072-1.072C184.301,191.72,183.821,192.2,183.821,192.792z"/>
							</g>
						</g>
					</g>
				</g>
				<g id="XMLID_53_">
					<g id="XMLID_57_">
						<g id="XMLID_58_">
							<path id="XMLID_63_" style="fill:#E79D90;" d="M185.931,215.039c-0.333,0.432-0.372,1.044-0.333,1.588
								c0.05,0.701,0.455,1.322,0.86,1.896c1.587,2.253,3.513,4.464,6.127,5.336c2.349,0.784,5.076,0.318,7.031-1.2
								c1.956-1.519,3.26-1.576,3.082-4.045c-0.077-1.063-1.235-4.066-1.631-5.055c-1.006-2.51-4.564-9.51-7.818-10.125
								C190.839,202.979,189.357,210.583,185.931,215.039z"/>
						</g>
					</g>
				</g>
				<g>
					<g id="XMLID_35_">
						<g id="XMLID_141_">
							<g id="XMLID_142_">
								<g id="XMLID_143_">
									<path id="XMLID_145_" style="fill:#E79D90;" d="M170.146,209.668c-0.418-0.06-0.872,0.075-1.284,0.215
										c-4.334,1.481-8.512,3.419-12.442,5.77c-0.76,0.455-1.529,0.941-2.065,1.647c-0.483,0.637-0.72,1.605-0.19,2.205
										c0.575,0.651,1.654,0.449,2.396-0.002c2.839-1.727,5.791-3.182,8.845-4.533c1.605-0.71,5.371-1.723,5.749-3.697
										c0.109-0.57-0.12-1.229-0.638-1.49C170.398,209.723,170.273,209.687,170.146,209.668z"/>
								</g>
							</g>
						</g>
						<g id="XMLID_134_">
							<g id="XMLID_135_">
								<g id="XMLID_136_">
									<path id="XMLID_137_" style="fill:#E79D90;" d="M167.026,217.184c-0.177-0.282-0.549-0.538-1.187-0.744
										c-1.24-0.4-2.35,0.364-3.455,0.866c-1.577,0.716-3.14,1.462-4.702,2.21c-2.011,0.963-0.255,3.951,1.749,2.992
										c1.7-0.814,3.403-1.624,5.125-2.391C165.661,219.623,167.68,218.227,167.026,217.184z"/>
								</g>
							</g>
						</g>
						<g id="XMLID_118_">
							<g id="XMLID_119_">
								<g id="XMLID_132_">
									<path id="XMLID_133_" style="fill:#E79D90;" d="M167.906,220.613c-0.289-0.616-1.07-0.945-2.137-0.55
										c-2.136,0.79-4.206,1.988-6.138,3.181c-1.894,1.169-0.156,4.168,1.749,2.992c1.876-1.158,4.224-1.961,5.846-3.468
										C168.011,222.039,168.18,221.197,167.906,220.613z"/>
								</g>
							</g>
						</g>
						<g id="XMLID_36_">
							<g id="XMLID_37_">
								<g id="XMLID_112_">
									<path id="XMLID_114_" style="fill:#E79D90;" d="M168.689,224.643c-0.155-0.198-0.332-0.381-0.552-0.5
										c-0.86-0.467-2.491,0.748-3.243,1.134c-1.311,0.673-2.59,1.407-3.851,2.168c-1.907,1.151-0.167,4.149,1.749,2.992
										c1.929-1.165,5.188-2.089,6.145-4.297c0.109-0.252,0.194-0.53,0.139-0.8c-0.041-0.201-0.155-0.379-0.275-0.546
										C168.765,224.743,168.728,224.693,168.689,224.643z"/>
								</g>
							</g>
						</g>
					</g>
					<g id="XMLID_1_">
						<g id="XMLID_9_">
							<g id="XMLID_32_">
								<path id="XMLID_34_" style="fill:#E79D90;" d="M164.31,227.199c0.333,0.432,0.372,1.044,0.333,1.588
									c-0.05,0.701-0.455,1.322-0.86,1.896c-2.477,3.516-5.661,5.856-7.861,9.67c-1.806,3.131-3.885,6.105-6.204,8.878
									c-1.462,1.748-3.144,3.494-5.347,4.079c-3.176,0.843-6.47-0.982-8.85-3.249c-0.733-0.698-1.452-1.508-1.612-2.507
									c-0.249-1.561,0.92-2.955,2.006-4.104c4.439-4.692,10.767-9.406,12.713-15.625c1.186-3.789,3.781-11.314,8.363-12.231
									C159.402,215.139,160.884,222.742,164.31,227.199z"/>
							</g>
						</g>
					</g>
				</g>
				<path style="fill:#7ABFB7;" d="M135.878,269.865c-6.774,6.887-15.328,12.651-25.153,9.488
					c-11.24-3.618-15.202-14.506-16.893-24.943c-1.18-7.28,0.186-15.692,1.694-22.835c2.27-10.753,8.063-19.943,19.689-22.436
					c3.57-0.765,10.448-4.04,14.093-4.268c1.145-0.071-0.646,3.046,0.444,3.403c1.09,0.357,2.09,1.215,2.284,2.346
					c0.379,2.207-3.403,6.125-4.587,8.16c-2.145,3.687-3.747,7.106-4.726,11.303c-0.382,1.636-0.32,13.206-0.998,13.503
					c4.814-2.106,7.735-6.278,12.233-8.635c2.316-1.214,5.234-1.599,7.52-0.328c3.409,1.895,4.166,6.502,6.889,9.295
					c1.033,1.059,2.354,1.86,3.142,3.112c1.283,2.039,0.786,4.811-0.568,6.805c-1.942,2.86-5.127,4.668-7.323,7.387
					C141.189,264.23,138.589,267.109,135.878,269.865z"/>
				<path style="fill:none;stroke:#1A2732;stroke-width:0.5;stroke-miterlimit:10;" d="M142.567,236.19
					c-10.3,4.233-19.643,10.777-27.142,19.008"/>
				<path style="fill:none;stroke:#1A2732;stroke-width:0.5;stroke-miterlimit:10;" d="M152.497,250.008
					c-0.387,3.815-0.85,7.75-2.762,11.074c-2.605,4.528-7.449,7.202-11.262,10.773c-2.188,2.049-4.064,4.429-6.39,6.32
					c-7.726,6.284-22.674,3.868-29.698-3.192"/>
				<path style="fill:none;stroke:#1A2732;stroke-width:0.5;stroke-miterlimit:10;" d="M121.055,249.291
					c-0.247-0.518-0.061-1.129,0.126-1.672c1.044-3.017,2.088-6.034,3.132-9.05c1.579-4.561,3.178-9.414,2.128-14.126"/>
				<g>
					<defs>
						<path id="SVGID_00000155837868833842683350000000870679202259911856_" d="M135.878,269.865
							c-6.774,6.887-15.328,12.651-25.153,9.488c-11.24-3.618-15.202-14.506-16.893-24.943c-1.18-7.28,0.186-15.692,1.694-22.835
							c2.27-10.753,8.063-19.943,19.689-22.436c2.371-0.508,4.812-0.673,7.153-1.302c4.358-1.169,8.765-3.938,13.044-2.504
							c0.441,5.379-5.405,9.85-8.182,13.748c-2.354,3.307-3.593,7.082-4.508,11.001c-0.382,1.636-0.32,13.206-0.998,13.503
							c4.814-2.106,7.735-6.278,12.233-8.635c2.316-1.214,5.234-1.599,7.52-0.328c3.409,1.895,4.166,6.502,6.889,9.295
							c1.033,1.059,2.354,1.86,3.142,3.112c1.283,2.039,0.786,4.811-0.568,6.805c-1.942,2.86-5.127,4.668-7.323,7.387
							C141.189,264.23,138.589,267.109,135.878,269.865z"/>
					</defs>
					<clipPath id="SVGID_00000055689754736054003280000003928517821144208295_">
						<use xlink:href="#SVGID_00000155837868833842683350000000870679202259911856_"  style="overflow:visible;"/>
					</clipPath>
					
						<path style="clip-path:url(#SVGID_00000055689754736054003280000003928517821144208295_);fill:none;stroke:#FFFFFF;stroke-miterlimit:10;" d="
						M151.048,245.951c-2.17,2.71-4.34,5.42-6.509,8.129c-2.229,2.783-4.482,5.592-7.268,7.818
						c-4.428,3.538-10.023,5.461-14.217,9.275c-1.289,1.172-2.432,2.512-3.84,3.538c-4.124,3.004-9.32,2.941-12.452-1.092
						c-2.963-3.816-5.454-8.062-6.792-12.703c-1.92-6.659-1.385-13.763-0.47-20.633c0.684-5.137,1.594-10.322,3.801-15.011
						c2.991-6.355,8.432-12.278,7.621-19.255"/>
					
						<path style="clip-path:url(#SVGID_00000055689754736054003280000003928517821144208295_);fill:none;stroke:#FFFFFF;stroke-miterlimit:10;" d="
						M150.137,241.648c-2.539,3.476-5.842,6.309-9.113,9.107c-7.603,6.505-15.206,13.011-22.809,19.516
						c-0.922,0.789-1.89,1.602-3.067,1.893c-1.723,0.426-3.562-0.386-4.824-1.633c-1.262-1.247-2.059-2.878-2.832-4.475
						c-2.908-6.007-3.775-10.721-3.451-17.563c0.31-6.549,1.639-13.05,3.948-19.187c1.607-4.27,3.679-8.365,5.037-12.721
						c1.358-4.355,1.972-9.11,0.598-13.461"/>
				</g>
			</g>
			<g>
				<g>
					<path style="fill:#FFC6B0;" d="M303.371,110.57c-1.975,0.244-3.93,0.264-5.423,0.264c-20.451,0-40.902,0-61.353,0
						c-14.861,0-29.721,0-44.582,0c-5.24,0-10.999-4.533-10.307-10.737c0.957-8.58,10.175-10.752,16.689-11.101
						c31.761-1.704,63.608-1.513,95.349,0.573c4.234,0.278,8.468,0.59,12.682,1.116c2.307,0.288,4.817,0.755,6.35,2.646
						c1.44,1.775,1.627,4.433,1.026,6.705C312.305,105.691,308.887,109.887,303.371,110.57z"/>
					<path style="fill:#FFC6B0;" d="M202.224,105.034c2.667,11.017-0.28,23.838-6.17,31.129c12.9-4.768,14.985-23.245,16.546-35.336
						"/>
				</g>
				<g>
					<path style="fill:#CCE0FF;" d="M166.723,131.141c-5.162,1.109-11.6,0.254-15.82,0.254c-11.525,0-23.049,0-34.574,0
						c-12.085,0-24.17,0-36.255,0c-9.458,0-24.641,2.855-32.713-3.359c-1.83-1.409-3.328-3.447-3.473-5.752
						c-0.154-2.459,0.411-5.753,2.347-7.45c1.198-1.051,2.852-1.377,4.425-1.632c17.028-2.757,34.773-0.894,52.006-0.894
						c11.422,0,22.837-0.461,34.256-0.611c5.117-0.067,10.131,0.166,15.184,0.482c5.239,0.328,10.214-0.554,15.491,0.498
						c1.765,0.352,3.551,0.836,5.019,1.877c3.303,2.341,3.002,7.514,1.691,10.924C173.033,128.793,170.161,130.403,166.723,131.141z
						"/>
					<path style="fill:#CCE0FF;" d="M153.038,125.869c-0.59,2.898-0.839,5.865-0.738,8.821c0.052,1.516,0.2,3.049,0.728,4.471
						c0.947,2.546,3.03,4.507,5.26,6.059c-4.155-0.552-7.823-3.418-9.791-7.118c-1.968-3.7-2.331-8.131-1.472-12.233"/>
				</g>
				<g>
					<path style="fill:#CCE0FF;" d="M329.071,184.933c-4.008,0.368-8.199,0.118-11.708,0.118c-10.898,0-21.796,0-32.695,0
						c-21.069,0-42.139,0-63.208,0c-1.12,0-2.24,0-3.36,0c-6.349,0-12.235-3.9-14.708-9.75c-2.125-5.026-1.019-13.874,2.749-18.165
						c2.051-2.337,5.443-2.84,8.54-3.124c15.903-1.459,31.755-2.043,47.717-1.78c12.725,0.21,25.45,0.419,38.175,0.629
						c9.546,0.157,19.097,0.315,28.62,0.996c3.583,0.256,7.44,0.704,10.091,3.129c1.952,1.786,2.936,4.387,3.605,6.947
						c1.121,4.29,1.513,8.985-0.257,13.05C340.181,182.607,334.813,184.405,329.071,184.933z"/>
					<path style="fill:#CCE0FF;" d="M226.877,190.302c-1.923,3.253-5.191,5.684-8.86,6.591c4.161,0.347,8.414-1.094,11.611-3.781
						c3.196-2.687,5.33-6.568,6.045-10.682c0.235-1.352,0.3-2.834-0.419-4.003c-1.797-2.924-5.93-1.859-6.773,0.939
						C227.379,183.021,229.174,186.417,226.877,190.302z"/>
				</g>
				<path style="fill:none;stroke:#1A2732;stroke-width:0.5;stroke-miterlimit:10;" d="M192.428,102.731
					c2.077-2.583,5.187-5.421,8.005-3.868c1.024,0.564,1.749,1.631,2.765,2.212c4.315,2.468,9.174-5.165,13.717-3.236
					c1.87,0.794,2.949,3.015,4.782,3.904c2.224,1.079,4.805-0.107,6.872-1.505c2.067-1.398,4.182-3.093,6.619-3.075
					c4.166,0.031,7.526,5.071,11.623,4.255c2.809-0.56,4.642-3.717,7.401-4.517c5.044-1.461,9.821,5.521,14.824,3.902
					c3.035-0.982,5.15-4.965,8.295-4.556c2.285,0.297,3.675,2.796,5.543,4.253c3.537,2.76,9.281,0.97,10.924-3.405"/>
				<path style="fill:none;stroke:#1A2732;stroke-width:0.5;stroke-miterlimit:10;" d="M222.775,172.084
					c4.547,2.786,11.397,0.287,13.082-4.772c-0.987-1.341-3.404,0.039-3.335,1.703c0.069,1.663,1.605,2.884,3.134,3.543
					c4.087,1.761,9.131,1.049,12.572-1.773c1.26-1.034,2.245-3.165,0.915-4.108c-1.132-0.803-2.815,0.481-2.814,1.869
					c0.001,1.388,1.084,2.539,2.244,3.3c4.707,3.087,11.812,1.567,14.844-3.176c0.64-1.002,0.924-2.654-0.173-3.111
					c-1.307,0.617-1.816,2.35-1.369,3.724c0.447,1.374,1.639,2.396,2.938,3.029c2.581,1.257,5.698,0.956,8.187-0.377
					c1.23-0.659,4.451-3.334,4.17-4.953c-0.257-1.483-1.598-0.861-2.11,0.149c-0.788,1.558-0.061,3.742,1.172,4.846
					c1.7,1.523,4.176,1.808,6.453,1.658c2.311-0.152,4.712-0.89,6.584-2.283c0.938-0.699,1.773-1.57,2.28-2.636
					c0.497-1.044,0.338-2.227-1.005-1.826c-1.495,0.447-1.799,2.987-1.241,4.169c0.942,1.994,3.317,2.894,5.516,3.061
					c2.324,0.177,4.764-0.502,6.672-1.84c0.999-0.701,2.645-2.631,2.892-3.831c0.157-0.762,0.346-1.696-0.86-1.232
					c-1.248,0.481-1.171,2.992-0.743,3.918c0.781,1.691,2.626,2.653,4.449,3.032c4.385,0.912,9.233-1.116,11.664-4.878"/>
				<path style="fill:none;stroke:#1A2732;stroke-width:0.5;stroke-miterlimit:10;" d="M55.793,124.699
					c2.102-1.903,4.927-3.94,7.513-2.778c1.25,0.562,2.117,1.786,3.382,2.312c3.932,1.634,7.745-4.285,11.885-3.291
					c1.903,0.457,3.201,2.279,5.048,2.925c4.186,1.463,8.158-3.621,12.576-3.246c2.703,0.229,4.911,2.476,7.613,2.718
					c4.898,0.438,9.017-5.762,13.708-4.286c2.529,0.796,4.262,3.703,6.913,3.674c2.704-0.03,4.461-3.128,7.118-3.629
					c4.279-0.808,7.547,5.353,11.827,4.546c3.352-0.632,5.755-5.396,8.915-4.112c0.969,0.394,1.622,1.293,2.42,1.969
					c2.682,2.275,7.334,1.541,9.185-1.45"/>
			</g>
			<path style="fill:#E84B4B;" d="M97.771,158.481c-1.705,0.514-2.958,2.922-2.958,2.922s-1.263-2.387-2.97-2.873
				c-4.944-1.408-7.153,3.051-5.26,7.166c1.826,3.969,8.259,8.745,8.259,8.745s6.412-4.882,8.22-8.882
				C104.937,161.413,102.709,156.991,97.771,158.481z"/>
			<g>
				<g>
					<path style="fill:#80B7C4;" d="M293.669,232.455l-0.141-0.003c0.934,0.019,1.704-0.731,1.708-1.669
						c0.004-0.925-0.777-1.665-1.702-1.683c-1.44-0.029-4.18,0.486-5.44-0.108c-2.198-1.036-0.497-4.747-0.472-6.489
						c0.009-0.652-0.033-1.331-0.348-1.901c-0.315-0.571-0.975-0.998-1.61-0.853c-0.863,0.196-1.197,1.217-1.452,2.065
						c-0.595,1.979-2.001,3.793-3.14,5.486c-1.284,1.909-2.175,4.126-2.457,6.414c-0.236,1.912-0.294,3.845-0.174,5.768
						c0.119,1.909,0.9,2.733,2.716,2.779c1.291,0.033,2.582,0.051,3.874,0.077l3.035,0.06l3.892,0.078
						c0.924,0.018,1.734-0.69,1.767-1.614c0.033-0.937-0.707-1.717-1.64-1.735l0.677,0.013c0.882,0.018,1.664-0.628,1.75-1.506
						c0.072-0.73-0.329-1.38-0.913-1.683c0.927,0.018,1.694-0.719,1.712-1.647l0.003-0.136
						C295.333,233.241,294.596,232.474,293.669,232.455z"/>
					<path style="fill:#80B7C4;" d="M276.716,231.476c-0.396-0.1-0.791-0.2-1.187-0.3c-0.433-0.11-0.911-0.215-1.311-0.016
						c-1.587,0.79-1.165,4.799-1.171,6.235c-0.005,1.439-0.82,4.845,1.384,5.044c0.757,0.068,1.616,0.104,2.169-0.417
						c0.41-0.386,0.537-0.979,0.63-1.535c0.277-1.659,0.439-3.337,0.487-5.019c0.022-0.773,0.202-3.081-0.357-3.735
						c-0.1-0.117-0.259-0.161-0.408-0.198C276.873,231.516,276.794,231.496,276.716,231.476z"/>
				</g>
			</g>
			<g>
				<g>
					<path style="fill:#80B7C4;" d="M68.751,199.363l-0.141-0.003c0.934,0.019,1.704-0.731,1.708-1.669
						c0.004-0.925-0.777-1.664-1.702-1.683c-1.44-0.029-4.18,0.486-5.44-0.108c-2.199-1.036-0.497-4.747-0.472-6.489
						c0.009-0.652-0.033-1.331-0.348-1.901c-0.315-0.571-0.975-0.998-1.61-0.853c-0.863,0.196-1.197,1.217-1.452,2.065
						c-0.595,1.979-2.001,3.793-3.14,5.486c-1.284,1.909-2.175,4.126-2.457,6.414c-0.236,1.912-0.295,3.845-0.175,5.768
						c0.119,1.909,0.9,2.733,2.716,2.779c1.291,0.033,2.583,0.051,3.874,0.077l3.035,0.06l3.892,0.078
						c0.924,0.018,1.734-0.69,1.767-1.614c0.033-0.937-0.707-1.717-1.64-1.735l0.677,0.013c0.882,0.018,1.664-0.628,1.75-1.506
						c0.072-0.73-0.329-1.38-0.913-1.683c0.927,0.018,1.694-0.719,1.712-1.647l0.003-0.136
						C70.415,200.148,69.679,199.381,68.751,199.363z"/>
					<path style="fill:#80B7C4;" d="M51.798,198.383c-0.396-0.1-0.791-0.2-1.187-0.3c-0.433-0.109-0.911-0.215-1.311-0.016
						c-1.587,0.79-1.165,4.799-1.171,6.235c-0.005,1.439-0.82,4.845,1.384,5.044c0.757,0.068,1.615,0.104,2.169-0.417
						c0.41-0.386,0.537-0.979,0.63-1.535c0.278-1.659,0.44-3.337,0.487-5.018c0.022-0.773,0.202-3.081-0.357-3.735
						c-0.1-0.117-0.259-0.161-0.408-0.198C51.956,198.423,51.877,198.403,51.798,198.383z"/>
				</g>
			</g>
		</g>
	</g>
	<g>
		<g>
			<g>
				<polyline style="fill:none;stroke:#000000;stroke-miterlimit:10;" points="585.929,410.496 528.702,337.193 461.782,411.717 
									"/>
				<polyline style="fill:none;stroke:#000000;stroke-miterlimit:10;" points="557.721,410.496 526.053,337.193 489.99,411.717 				
					"/>
				<path style="fill:#7ABFB7;" d="M434.423,314.069c-2.209,15.146,11.553,32.31,24.593,39.609
					c18.559,10.388,41.511,12.394,62.387,12.394c31.555,0,72.496-9.417,90.003-38.817c6.88-11.554,9.836-25.041,11.215-38.418
					c4.091-39.699-23.823-101.1-73.995-82.567c-20.344,7.515-27.591,31.799-39.789,49.73c-9.176,13.487-22.319,24.241-37.356,30.563
					c-9.548,4.014-20.04,6.402-28.146,12.849C437.928,303.71,435.196,308.766,434.423,314.069z"/>
				<path style="fill:#4F7FC2;" d="M526.109,295.988c9.29-0.55,19.674-1.361,26.8,4.624c1.795,1.508,3.3,3.444,3.944,5.698
					c0.849,2.972,0.125,6.2-1.207,8.989c-3.834,8.032-12.206,12.947-20.657,15.736c-14.625,4.828-30.69,4.637-45.535,0.536
					c-14.845-4.101-28.497-11.993-40.235-21.963c-5.223-4.436-12.897-12.194-7.653-19.395c2.025-2.78,5.552-4.314,8.988-4.161
					c2.194,0.097,4.306,0.818,6.382,1.531c9.221,3.168,17.388,5.55,27.005,6.836C497.902,296.287,512.045,296.82,526.109,295.988z"
					/>
				<path style="fill:#E79D90;" d="M509.015,283.039c3.907-8.739,8.094-17.633,9.575-27.04c0.976-6.201,4.123-12.32,1.929-18.611
					c-1.981-5.678-7.67-6.393-13.107-4.544c-6.198,2.109-9.495,8.739-11.778,14.875c-3.428,9.211-6.038,18.726-7.791,28.396
					c-0.795,4.384-1.07,9.106,2.428,12.293c3.121,2.843,8.845,4.783,12.76,2.642C506.011,289.421,507.629,286.139,509.015,283.039z"
					/>
				<path style="fill:#E84B4B;" d="M579.571,257.091c0.062-9.703,1.987-18.814,2.456-28.512c-4.452-1.158-5.272-0.785-6.423-0.471
					c-3.006,0.82-4.841,3.738-7.053,5.934c-4.454,4.422-10.757,4.942-16.696,4.088c-4.977-0.715-9.906-2.224-14.104-4.991
					c-3.805-2.509-7.923-6.897-8.764-11.572c-0.047-0.26-0.087-0.54-0.263-0.738c-0.178-0.2-0.455-0.274-0.715-0.337
					c-3.204-0.781-6.565-1.563-9.759-0.743c-1.668,0.428-3.198,1.275-4.632,2.229c-7.045,4.689-11.929,11.916-16.628,18.954
					c0.895-0.471,6.264,2.836,7.163,3.26c3.188,1.505,7.043,1.896,9.986,3.548c-2.656,5.054-5.6,9.796-7.563,15.233
					c-0.505,1.398-0.972,2.869-0.8,4.346c0.159,1.367,0.849,2.607,1.26,3.921c2.04,6.517-2.439,11.977-4.083,17.901
					c-4.18,15.064,14.52,20.354,26.281,21.589c7.581,0.795,15.228-1.338,22.08-4.679c6.948-3.388,13.398-8.16,17.63-14.628
					c2.837-4.335,4.69-9.03,6.445-13.872c0.908-2.505,1.063-8.128,3.863-9.345c0.064-0.028,0.138-0.047,0.206-0.071
					C579.471,264.451,579.547,260.766,579.571,257.091z"/>
				<path style="fill:#E79D90;" d="M557.405,304.863c-1.474-1.728-2.35-3.891-2.157-6.153c0.278-3.254,2.542-5.93,4.46-8.573
					c6.241-8.604,9.598-18.907,12.901-29.01c2.622-8.021,11.028-19.826,21.091-14.09c5.878,3.351,5.595,9.423,6.249,15.236
					c0.343,3.045,0.131,6.132-0.342,9.152c-2.275,14.524-10.256,29.113-24.206,35.271c-3.997,1.764-8.546,2.796-12.742,1.576
					C560.644,307.686,558.768,306.461,557.405,304.863z"/>
				<path d="M546.553,313.904l-63.932-0.156c-1.158-0.003-2.211-0.671-2.707-1.718l-0.69-1.457h67.328V313.904z"/>
				<path style="fill:#E79D90;" d="M553.039,290.802c5.592-0.911,11.966-0.854,16.127,2.991c1.004,0.928,1.852,2.089,2.129,3.427
					c0.508,2.457-0.982,4.881-2.692,6.716c-6.108,6.555-15.561,9.181-24.513,8.817c-5.021-0.204-24.882-1.531-18.229-10.193
					C531.274,295.514,544.754,292.151,553.039,290.802z"/>
				<path d="M479.225,310.574h60.342l-15.405-32.915c-0.423-0.904-1.332-1.482-2.33-1.482h-54.661c-1.884,0-3.129,1.958-2.33,3.664
					L479.225,310.574z"/>
				<path style="fill:#4F7FC2;" d="M501.721,344.227c-2.109-0.546-4.194-1.212-6.247-2.013c-5.452-2.129-11.204-7.035-8.138-13.467
					c3.297-6.916,11.936-8.143,18.259-6.779c7.763,1.673,16.591-5.469,22.316-9.72c8.724-6.478,16.489-13.904,25.142-20.438
					c2.521-1.904,5.109-3.828,8.109-4.821c5.996-1.984,12.868,0.218,17.461,4.553c4.732,4.467,8.269,13.25,9.806,19.456
					c1.155,4.665,1.979,9.881-0.214,14.317c-2.584,5.229-7.068,9.493-12.419,11.813c-3.485,1.511-7.259,2.203-10.995,2.884
					c-11.388,2.076-22.898,4.903-34.39,6.271C520.928,347.414,511.129,344.227,501.721,344.227z"/>
				<path style="fill:#E79D90;" d="M523.744,349.393c0.604-4.557,1.334-9.101,2.31-13.588c-5.792-0.877-11.102-3.278-16.558-5.468
					c-1.954-0.784-4.158-1.229-6.161-0.581c-4.652,1.507-7.299,9.783-4.67,13.79c2.798,4.266,10.676,6.729,21.127,7.81
					C521.11,351.494,522.416,350.569,523.744,349.393z"/>
				<path d="M558.196,326.442c-1.078-0.316-2.198-0.5-3.304-0.551c-3.976-0.182-7.864,1.049-11.661,2.244
					c-7.287,2.293-14.6,4.501-21.937,6.625c-0.193,0.054-0.131,4.068-0.135,4.485c-0.015,1.468-0.278,2.645-0.723,4.058
					c-0.936,2.969-2.109,5.855-3.137,8.792c5.704,0.23,11.469-0.372,17.154-0.932c3.901-0.384,7.831-0.775,11.581-1.916
					c4.345-1.323,8.33-3.62,12.113-6.133c3.657-2.429,8.96-6.662,6.601-11.554C563.499,328.973,560.99,327.262,558.196,326.442z"/>
				<path d="M474.898,334.582c-3.685,0.231-11.038-0.704-14.382,0.844c-4.423,2.047-2.448,8.155-0.461,11.34
					c5.157,8.269,14.127,6.924,22.535,6.938c6.401,0.011,13.396-1.277,18.132-5.929c2.434-2.391,3.656-6.353,1.941-9.302
					c-1.912-3.288-6.318-3.929-10.118-4.084C486.664,334.149,480.772,334.214,474.898,334.582z"/>
				<path style="fill:#E8CB61;" d="M475.731,337.774c-1.056,1.91-2.136,3.887-2.479,6.133c-0.343,2.246,0.238,4.853,1.884,6.042"/>
				<path style="fill:#E8CB61;" d="M482.13,338.606c-2.501,2.734-2.728,7.88-0.482,10.908"/>
				<path style="fill:#4F7FC2;" d="M498.406,350.059c-10.33-3.732-20.66-7.463-30.99-11.195
					c-9.076-3.279-18.219-6.589-26.487-11.563c-7.152-4.303-13.629-10.122-17.426-17.662c-3.357-6.665-4.37-12.083,0.163-18.394
					c3.494-4.864,9.096-8.318,15.128-8.705c6.611-0.424,12.95,2.388,18.977,5.139c3.35,1.529,6.699,3.058,10.049,4.587
					c0.405,0.185,0.826,0.382,1.1,0.732c0.422,0.538,0.395,1.288,0.368,1.972c-0.239,6.062,0.394,10.735,5.085,14.651
					c3.775,3.152,8.043,5.664,12.408,7.901c8.768,4.493,18.155,7.74,26.718,12.64c0.605,0.346,1.24,0.729,1.552,1.351
					c0.915,1.822-6.753,20.289-8.802,20.045C504.227,351.319,500.321,350.751,498.406,350.059z"/>
				<path style="fill:none;stroke:#000000;stroke-width:0.5;stroke-miterlimit:10;" d="M451.944,293.435
					c11.629,5.259,20.988,14.396,31.577,21.522c9.888,6.655,20.837,11.545,31.723,16.4"/>
				<path style="fill:none;stroke:#000000;stroke-width:0.5;stroke-miterlimit:10;" d="M527.174,312.52
					c-5.252,4.713-15.289,10.355-21.609,13.494"/>
				<g>
					<defs>
						<path id="SVGID_00000157990518027587717630000003493460714817137826_" d="M491.522,273.063
							c2.446-14.728,6.863-36.443,18.155-47.729c3.817,3.31,8.382,5.755,13.005,7.739c5.957,2.557,12.148,4.394,18.567,5.338
							c3.447,0.507,6.927,0.795,10.407,0.929c3.397,0.13,6.826,0.174,10.222,0c4.386-0.225,8.842-1,12.93-2.643
							c2.098-0.843,4.139-1.981,5.845-3.46c0.391-0.545,0.763-1.106,1.042-1.74c0.149-0.339,0.343-0.738,0.711-0.782
							c0.153-0.018,0.304,0.033,0.449,0.085c6.32,2.234,12.505,5.223,17.373,9.831c3.655,3.46,6.518,7.916,7.682,12.845
							c0.58,2.457,0.765,5.115,1.047,7.621c0.343,3.046,0.131,6.132-0.342,9.152c-2.184,13.944-9.855,26.459-18.802,37.375
							c-3.109,3.793-7.966,8.719-13.144,9.243c-7.592,0.77-8.72-8.505-8.174-13.975c0.428-4.288,0.857-8.577,1.3-12.864
							c-0.275,0.469-0.552,0.937-0.851,1.393c-4.232,6.468-10.682,11.24-17.63,14.628c-6.852,3.341-14.498,5.474-22.08,4.678
							c-7.953-0.835-16.79-4.582-23.617-8.622c-5.126-3.034-10.426-6.483-13.021-11.845
							C490.054,285.005,490.566,278.824,491.522,273.063z"/>
					</defs>
					<clipPath id="SVGID_00000005259419125818066820000009036707178628712854_">
						<use xlink:href="#SVGID_00000157990518027587717630000003493460714817137826_"  style="overflow:visible;"/>
					</clipPath>
				</g>
				<path style="fill:#E8CB61;" d="M503.728,294.865c0.16,1.143-0.695,2.229-1.937,2.229c-1.243,0-2.385-0.962-2.551-2.149
					c-0.167-1.187,0.706-2.149,1.948-2.149C502.43,292.796,503.567,293.722,503.728,294.865z"/>
				<path style="fill:#E84B4B;" d="M601.931,262.933c0.173-4.868,0.155-9.862-1.062-14.609c-1.449-5.652-3.025-12.028-8.116-15.374
					c-4.746-3.12-10.392-4.853-16.071-4.934c-0.539-0.008-1.123,0.014-1.547,0.348c-0.492,0.388-0.615,1.071-0.705,1.692
					c-1.741,11.979-4.152,23.86-7.219,35.57c2.785,1.362,34.231,4.86,34.263,4.479C601.675,267.717,601.846,265.328,601.931,262.933
					z"/>
				<g>
					<path style="fill:#E79D90;" d="M567.52,222.906c-2.212-1.767-3.916-4.087-4.669-7.291c-1.352-5.752-1.278-11.977-0.083-17.763
						c1.09-5.278,2.23-5.426,0.337-10.574c-1.658-4.508-4.499-8.615-8.307-11.647c-5.078-4.044-13.438-1.906-19.545-1.209
						c-0.892,5.631-1.371,11.328-1.432,17.029c-0.067,6.258,1.448,11.027,6.226,15.068c0.96,0.811,0.885,1.182,0.87,2.527
						c-0.029,2.616,0.548,5.507-0.42,8.019c-1.229,3.188-5.315,3.539-8.29,3.534c-2.364-0.004-4.658-0.445-6.993-0.729
						c0.769,0.576,0.719,2.733,0.937,3.648c0.327,1.372,0.722,2.731,1.261,4.036c1.156,2.801,2.992,5.197,5.322,7.127
						c4.513,3.737,10.266,5.724,16.06,6.596c5.176,0.78,10.687,0.676,15.36-1.684c5.418-2.736,9.528-7.957,14.302-11.705
						C574.785,226.727,570.437,225.235,567.52,222.906z"/>
					<path d="M568.518,187.06c-0.574,2.721-1.394,7.68-5.361,6.724c-1.738-0.419-3.221-1.459-3.903-3.169
						c-0.839-2.103-0.234-4.414-1.054-6.448c-0.922-2.286-3.712-4.656-6.103-5.143c-2.816-0.573-5.637,0.93-7.888,2.717
						c-2.251,1.787-4.289,3.945-6.938,5.059c-2.509,1.055-5.51,1.028-7.877-0.316c-2.367-1.344-3.963-4.06-3.727-6.771
						c0.143-1.646,1.015-3.245,2.305-4.275c1.559-1.245,3.793-0.586,5.163-1.627c2.4-1.826-0.776-4.332,1.336-6.424
						c2.516-2.492,9.26-1.633,12.315-1.082c4.457,0.804,8.715,2.533,12.794,4.457c2.858,1.348,7.348,3.426,8.783,6.48
						C569.64,179.956,569.12,184.209,568.518,187.06z"/>
					<path style="fill:#E79D90;" d="M560.02,184.321c-1.609,0.027-2.771,0.759-3.571,1.849c0.24,0.696,0.59,1.367,0.905,2.027
						c0.38,0.798,0.7,1.574,0.98,2.411c0.514,1.539,0.871,3.17,1.066,4.798c0.017,0,0.033,0.002,0.05,0.001
						c3.249-0.055,5.797-2.772,6.089-5.737C565.837,186.636,563.051,184.269,560.02,184.321z"/>
					<path d="M558.839,187.993c0.704-0.418,1.62-0.179,2.165,0.335c0.629,0.593,0.89,1.524,0.671,2.395
						c-0.219,0.871-0.912,1.657-1.782,2.022"/>
					<path d="M544.307,207.705c-1.536,0.159-3.129-0.327-4.315-1.316l0.004,0.054c0.743,0.744,0.899,1.943,0.878,3.017
						c-0.016,0.813-0.148,1.613-0.242,2.417c3.437-0.512,6.531-3.044,7.63-6.343C547.303,206.745,545.844,207.546,544.307,207.705z"
						/>
					<path style="fill:#FFFFFF;" d="M536.953,197.334c1.223,1.7,3.485,2.581,5.535,2.156c2.05-0.425,3.776-2.133,4.221-4.179"/>
					<path d="M554.07,198.095c-1.342,0-2.681-0.122-3.989-0.368l0.108-0.578c3.884,0.731,8.046,0.335,11.72-1.114l0.216,0.547
						C559.587,197.583,556.822,198.095,554.07,198.095z"/>
					<path style="fill:#E8CB61;" d="M567.572,184.486c0.73-5.27,0.053-10.413-3.582-14.946c-1.572-1.959-3.221-3.4-5.703-4.045
						c-3.391-0.881-6.931-1.181-10.421-0.885c-0.461,0.039-0.943,0.096-1.328,0.359c-0.832,0.572-0.557,1.655,0.386,1.865
						c5.06,1.129,9.961,1.67,13.317,6.17c2.6,3.486,3.025,7.386,2.684,11.378c-3.144,1-5.438,4.104-5.438,7.783
						c0,4.487,3.41,8.124,7.616,8.124c4.206,0,7.616-3.637,7.616-8.124C572.72,188.601,570.565,185.581,567.572,184.486z"/>
					<path d="M569.994,192.165c0,2.881-2.19,5.217-4.891,5.217s-4.891-2.336-4.891-5.217s2.19-5.217,4.891-5.217
						S569.994,189.284,569.994,192.165z"/>
					<path d="M560.3,174.192c-0.103-0.955-0.812-1.72-1.507-2.383c-4.449-4.242-10.231-7.494-16.378-7.423
						c-1.539,0.018-3.088,0.247-4.522,0.807c-1.102,0.43-2.255,1.254-2.293,2.436c-0.03,0.926,0.645,1.716,1.335,2.333
						c0.76,0.68,1.592,1.28,2.478,1.787"/>
					<path d="M553.59,197.744c0,1.714-1.39,3.104-3.104,3.104c-1.714,0-3.104-1.39-3.104-3.104c0-1.714,1.39-3.104,3.104-3.104
						C552.201,194.64,553.59,196.029,553.59,197.744z"/>
				</g>
				<path style="fill:#E8CB61;" d="M530.869,336.876c1.809,2.995,1.672,7.052-0.335,9.918"/>
				<path style="fill:#E8CB61;" d="M543.818,333.889c1.404,1.629,1.772,3.951,1.471,6.079c-0.301,2.129-1.197,4.121-2.082,6.08"/>
				<path style="fill:#E8CB61;" d="M536.642,335.743c1.524,1.035,2.501,2.835,2.537,4.677c0.036,1.842-0.867,3.679-2.349,4.774"/>
				<path style="fill:none;stroke:#000000;stroke-width:0.5;stroke-miterlimit:10;" d="M551.838,327.298
					c6.147-2.125,11.923-5.319,16.989-9.397c2.095-1.686,4.129-3.604,5.167-6.084"/>
				<path style="fill:none;stroke:#000000;stroke-width:0.5;stroke-miterlimit:10;" d="M569.805,266.978
					c1.499-3.9,2.635-7.939,3.387-12.048"/>
				<path style="fill:none;stroke:#000000;stroke-width:0.5;stroke-miterlimit:10;" d="M513.08,249.303
					c1.824-3.099,3.276-6.417,4.314-9.861"/>
				<path style="fill:none;stroke:#1A2732;stroke-width:0.5;stroke-miterlimit:10;" d="M538.755,218.752
					c1.219,1.565,3.241,2.236,5.165,2.718c3.496,0.876,7.111,1.403,10.705,1.134c3.594-0.27,7.176-1.37,10.075-3.511"/>
				<path style="fill:#E84B4B;" d="M550.074,222.141c-0.098-0.348-0.274-0.651-0.529-0.907c-0.139-0.107-0.277-0.214-0.416-0.321
					c-0.321-0.186-0.667-0.279-1.038-0.281c-0.283-0.011-0.547,0.048-0.792,0.177c-0.255,0.083-0.475,0.224-0.662,0.425
					c-0.201,0.186-0.342,0.407-0.425,0.662c-0.129,0.245-0.188,0.509-0.177,0.792c0.025,0.182,0.049,0.364,0.073,0.546
					c0.098,0.348,0.274,0.651,0.529,0.907c0.139,0.107,0.277,0.214,0.416,0.322c0.321,0.186,0.667,0.279,1.038,0.281
					c0.283,0.011,0.547-0.048,0.792-0.177c0.255-0.083,0.475-0.224,0.661-0.425c0.201-0.186,0.342-0.407,0.425-0.662
					c0.129-0.245,0.188-0.509,0.177-0.792C550.123,222.505,550.098,222.323,550.074,222.141z"/>
			</g>
			<g>
				<path style="fill:#CCE0FF;" d="M492.214,210.102c-3.207,0.574-6.56,0.183-9.368,0.183c-8.72,0-17.439,0-26.159,0
					c-16.858,0-33.715,0-50.573,0c-0.896,0-1.792,0-2.688,0c-5.08,0-9.79-6.077-11.768-15.194c-1.7-7.833-0.815-21.622,2.199-28.31
					c1.641-3.642,4.355-4.426,6.833-4.869c12.724-2.273,25.408-3.184,38.178-2.774c10.181,0.327,20.363,0.653,30.544,0.98
					c7.638,0.245,15.28,0.49,22.899,1.552c2.867,0.399,5.953,1.098,8.073,4.876c1.562,2.784,2.349,6.837,2.884,10.827
					c0.897,6.686,1.211,14.003-0.205,20.339C501.103,206.478,496.808,209.28,492.214,210.102z"/>
				<path style="fill:#CCE0FF;" d="M418.923,196.214c1.433,5.934-0.619,12.259,0.609,18.238c1.168,5.691,5.351,10.542,10.569,13.096
					c-1.451-0.674-3.054-0.964-4.523-1.599c-2.233-0.965-4.054-2.678-5.684-4.484c-4.576-5.069-8.13-11.55-7.816-18.372
					c0.029-0.638-0.301-1.58-0.881-1.313"/>
				<path style="fill:none;stroke:#1A2732;stroke-width:0.5;stroke-miterlimit:10;" d="M404.791,177.775
					c0.71-4.159,6.178-5.434,10.334-4.704c4.155,0.73,8.525,2.483,12.418,0.857c2.27-0.948,4.196-3.003,6.656-2.975
					c3.309,0.037,5.44,3.78,8.659,4.546c4.008,0.955,7.718-2.983,11.836-2.846c3.003,0.099,5.489,2.325,8.37,3.18
					c2.886,0.857,5.374,0.086,7.94-1.215c1.961-0.994,5.029-4.254,7.278-1.545c0.403,0.486,0.582,1.115,0.891,1.666
					c0.832,1.481,2.565,2.272,4.258,2.412c1.692,0.139,3.376-0.273,5.025-0.683"/>
				<path style="fill:none;stroke:#1A2732;stroke-width:0.5;stroke-miterlimit:10;" d="M404.609,187.997
					c1.275-2.884,5.471-2.834,8.343-1.533c2.873,1.301,5.652,3.416,8.791,3.111c4.274-0.416,7.579-5.253,11.808-4.503
					c2.673,0.475,4.572,3.107,7.246,3.571c3.64,0.632,6.672-2.908,10.307-3.569c5.648-1.026,11.126,5.054,16.56,3.206
					c2.305-0.784,4.466-2.955,6.767-2.161c1.121,0.387,1.882,1.397,2.729,2.227c1.179,1.155,2.724,2.05,4.374,2.032
					c1.65-0.019,3.341-1.171,3.579-2.804"/>
			</g>
			<g>
				<path style="fill:#E8CB61;" d="M612.739,109.263c-1.881,0.34-3.743,0.366-5.165,0.366c-19.478,0-38.956,0-58.434,0
					c-14.154,0-28.307,0-42.461,0c-4.991,0-10.476-6.293-9.817-14.908c0.912-11.914,9.691-14.928,15.895-15.413
					c30.25-2.367,60.582-2.101,90.813,0.796c4.032,0.386,8.065,0.82,12.078,1.549c2.197,0.399,4.587,1.049,6.047,3.674
					c1.371,2.465,1.55,6.155,0.977,9.309C621.247,102.489,617.993,108.315,612.739,109.263z"/>
				<path style="fill:#E8CB61;" d="M530.302,96.116c-0.853,3.253-1.338,6.591-1.727,9.932c-0.44,3.778-0.757,7.626-0.078,11.369
					c0.679,3.743,2.463,7.418,5.529,9.67c-3.467-1.136-7.007-2.736-9.103-5.723c-1.24-1.767-1.872-3.884-2.332-5.993
					c-1.299-5.967-1.351-12.204-0.15-18.192"/>
				<path style="fill:none;stroke:#1A2732;stroke-width:0.5;stroke-miterlimit:10;" d="M506.391,95.803
					c2.674,1.959,6.395,2.388,9.445,1.088c3.05-1.3,5.317-4.282,5.755-7.568c-1.384-0.43-2.661,1.329-2.302,2.733
					c0.359,1.404,1.699,2.323,3.02,2.919c6.074,2.739,13.875,0.93,18.123-4.203c-0.033-1.549-2.854-1.239-3.127,0.287
					c-0.273,1.525,1.051,2.864,2.392,3.64c6.076,3.516,13.786,1.511,20.252-1.223c1.818-0.769,3.946-2.774,2.681-4.289
					c-1.076,0.511-1.279,2.07-0.69,3.105c0.589,1.035,1.71,1.638,2.809,2.097c6.975,2.913,15.453,1.867,21.511-2.653
					c-0.479-1.09-2.391-0.282-2.398,0.909c-0.007,1.191,1.069,2.087,2.113,2.66c5.275,2.897,12.385,1.953,16.722-2.219
					c2.885,3.49,9.374,2.71,11.351-1.364"/>
			</g>
			<g>
				<path style="fill:#FFC6B0;" d="M602.238,193.886c2.049,9.008,6.956,16.089,17.022,16.194
					c19.518,0.202,39.036,0.405,58.555,0.608c6.651,0.069,13.523,0.096,19.644-2.506c14.518-6.173,12.693-26.841,12.509-39.907
					c-0.084-5.937-0.836-12.968-6.029-15.846c-2.477-1.373-5.444-1.431-8.276-1.455c-20.362-0.174-40.726-0.29-61.087-0.522
					c-9.172-0.105-31.817-0.987-31.817,13.574C601.174,171.883,599.998,184.036,602.238,193.886z"/>
				<path style="fill:#FFC6B0;" d="M631.359,197.66c0.922-0.296,1.691,0.727,2.119,1.596c2.389,4.855,4.692,9.941,4.888,15.348
					c0.196,5.408-2.203,11.254-7.075,13.608c6.587-3.313,12.628-8.141,16.128-14.631c3.5-6.489,4.11-14.787,0.414-21.167"/>
				<path style="fill:none;stroke:#1A2732;stroke-width:0.5;stroke-miterlimit:10;" d="M612.479,171.296
					c25.979-1.162,51.987-1.647,77.991-1.456"/>
				<path style="fill:none;stroke:#1A2732;stroke-width:0.5;stroke-miterlimit:10;" d="M612.471,181.179
					c28.373-0.413,56.748-0.671,85.123-0.775"/>
				<path style="fill:none;stroke:#1A2732;stroke-width:0.5;stroke-miterlimit:10;" d="M615.325,190.52
					c28.253,0.328,56.505,0.657,84.757,0.985"/>
				<path style="fill:none;stroke:#1A2732;stroke-width:0.5;stroke-miterlimit:10;" d="M616.799,202.093
					c2.102-2.141,4.865-4.238,7.809-3.659c2.112,0.415,3.743,2.13,5.793,2.788c3.947,1.267,7.898-1.613,11.925-2.594
					c0.754-0.184,1.561-0.298,2.296-0.049c0.609,0.207,1.107,0.641,1.633,1.012c3.295,2.329,8.185,2.055,11.198-0.629"/>
			</g>
			<path style="fill:#E84B4B;" d="M580.393,125.427c-1.624,0.49-2.817,2.783-2.817,2.783s-1.203-2.273-2.829-2.736
				c-4.708-1.34-6.812,2.906-5.01,6.825c1.739,3.781,7.866,8.329,7.866,8.329s6.107-4.65,7.829-8.46
				C587.217,128.219,585.095,124.008,580.393,125.427z"/>
			<path style="fill:#E84B4B;" d="M472.127,225.44c-1.624,0.49-2.817,2.783-2.817,2.783s-1.203-2.273-2.829-2.736
				c-4.708-1.34-6.812,2.906-5.01,6.825c1.739,3.781,7.866,8.329,7.866,8.329s6.107-4.65,7.829-8.46
				C478.951,228.232,476.829,224.021,472.127,225.44z"/>
			<path style="fill:#E84B4B;" d="M610.842,117.414c-1.624,0.49-2.817,2.783-2.817,2.783s-1.203-2.273-2.829-2.736
				c-4.708-1.34-6.812,2.906-5.01,6.825c1.739,3.781,7.866,8.329,7.866,8.329s6.107-4.65,7.829-8.459
				C617.667,120.206,615.544,115.995,610.842,117.414z"/>
			<path style="fill:#E84B4B;" d="M632.951,102.874c-1.349,0.407-2.341,2.312-2.341,2.312s-1-1.889-2.351-2.273
				c-3.912-1.114-5.66,2.415-4.163,5.671c1.445,3.141,6.536,6.92,6.536,6.92s5.074-3.864,6.506-7.029
				C638.622,105.194,636.859,101.695,632.951,102.874z"/>
			<g>
				<path d="M652.008,273.396c-8.001,0-14.577-7.045-14.642-7.116l-0.119-0.129l0.119-0.129c0.065-0.071,6.641-7.116,14.642-7.116
					c8,0,14.576,7.045,14.641,7.116l0.119,0.129l-0.119,0.129C666.584,266.351,660.008,273.396,652.008,273.396z M637.768,266.151
					c0.931,0.954,7.003,6.865,14.239,6.865c7.236,0,13.307-5.912,14.239-6.865c-0.932-0.954-7.003-6.865-14.239-6.865
					C644.771,259.286,638.7,265.198,637.768,266.151z"/>
				<path d="M657.887,266.151c0,3.896-2.632,7.055-5.879,7.055s-5.879-3.159-5.879-7.055s2.632-7.055,5.879-7.055
					S657.887,262.255,657.887,266.151z"/>
			</g>
			<g>
				<circle style="fill:#7ABFB7;" cx="462.269" cy="116.15" r="13.624"/>
				<g>
					<path style="fill:#FFFFFF;" d="M465.876,112.076c0,1.992-1.615,3.606-3.606,3.606s-3.607-1.615-3.607-3.606
						c0-1.992,1.615-3.606,3.607-3.606S465.876,110.084,465.876,112.076z"/>
					<path style="fill:#FFFFFF;" d="M469.642,122.229c-0.834-3.3-3.814-5.745-7.373-5.745s-6.539,2.446-7.373,5.745H469.642z"/>
				</g>
			</g>
		</g>
		<path style="opacity:0.11;" d="M591.699,408.873c1.594,3.455-2.393,6.554-7.187,7.003c-34.596,3.235-69.413,4.094-104.126,2.568
			c-6.966-0.306-13.975-0.715-20.75-2.369c-10.351-2.532-4.857-10.458,2.556-11.702c27.451-4.606,55.544,1.086,83.36,0.046
			c11.922-0.446,23.877-2.129,35.737-0.832c2.486,0.272,5.035,0.702,7.157,2.027C590.166,406.689,591.203,407.798,591.699,408.873z"
			/>
	</g>
</g>
</svg>
